<svg width="20" height="20" fill="none" xmlns="http://www.w3.org/2000/svg"><path d="M10 0C7.28 0 6.94.02 5.88.06a7.33 7.33 0 0 0-2.43.46c-.66.26-1.22.6-1.77 1.16A4.9 4.9 0 0 0 .53 3.45a7.35 7.35 0 0 0-.47 2.43C.01 6.94 0 7.28 0 10s.01 3.06.06 4.12c.05 1.07.22 1.8.47 2.43.25.66.6 1.21 1.15 1.77.55.55 1.11.9 1.77 1.15.64.25 1.36.42 2.43.47 1.06.05 1.4.06 4.12.06s3.06-.02 4.12-.06a7.35 7.35 0 0 0 2.43-.47 4.9 4.9 0 0 0 1.77-1.15 4.9 4.9 0 0 0 1.15-1.77c.25-.64.42-1.36.47-2.43.05-1.06.06-1.4.06-4.12 0-2.71-.01-3.06-.06-4.12a7.35 7.35 0 0 0-.47-2.43 4.9 4.9 0 0 0-1.15-1.77A4.9 4.9 0 0 0 16.55.52a7.35 7.35 0 0 0-2.43-.46A70.6 70.6 0 0 0 10 0Zm0 1.8c2.67 0 2.99.02 4.04.06.97.04 1.5.2 1.86.35.47.18.8.4 1.15.74.35.35.56.68.74 1.15.14.35.3.89.35 1.86.05 1.05.06 1.37.06 4.04s-.01 2.99-.06 4.04c-.04.98-.2 1.5-.35 1.86-.18.46-.4.8-.74 1.15a3.1 3.1 0 0 1-1.15.75c-.35.13-.89.3-1.86.34a69 69 0 0 1-4.04.06c-2.67 0-2.99-.02-4.04-.06-.97-.05-1.5-.2-1.86-.34a3.1 3.1 0 0 1-1.15-.75 3.1 3.1 0 0 1-.74-1.15c-.14-.36-.3-.88-.35-1.86A69.52 69.52 0 0 1 1.8 10c0-2.67.02-2.99.06-4.04.05-.97.2-1.5.35-1.86.18-.47.4-.8.74-1.15a3.1 3.1 0 0 1 1.15-.74c.36-.14.89-.3 1.86-.35C7.01 1.81 7.33 1.8 10 1.8Zm5.34 1.66a1.2 1.2 0 1 0 0 2.4 1.2 1.2 0 0 0 0-2.4ZM10 4.86a5.13 5.13 0 1 0 0 10.27 5.13 5.13 0 0 0 0-10.27Zm0 1.8a3.33 3.33 0 1 1 0 6.67 3.33 3.33 0 0 1 0-6.66Z" fill="#F07F83"/></svg>