<svg width="24" height="24" fill="none" xmlns="http://www.w3.org/2000/svg"><g clip-path="url(#a)"><path d="M15.27 13.21c.58.18 1.08.42 1.54.7l-.03-.02c.53.24.99.51 1.4.83l.02.2v.03c-.01.43-.1.83-.27 1.2v-.02c-.22.46-.6.82-1.08 1l-.01.01c-.46.24-1 .4-1.58.41a8.34 8.34 0 0 1-3-.98l.05.02a8.9 8.9 0 0 1-2.64-1.83c-.82-.86-1.58-1.8-2.24-2.8l-.05-.07a5.38 5.38 0 0 1-1.1-3v-.13c.03-.97.47-1.84 1.14-2.44.21-.21.5-.34.81-.35l.3.03H8.5l.3.02a.64.64 0 0 1 .41.1c.1.12.19.26.23.42a68.71 68.71 0 0 1 .9 2.47v.06c-.07.36-.26.67-.53.89-.36.38-.54.62-.54.72a7.03 7.03 0 0 0 1.66 2.35 9.9 9.9 0 0 0 2.29 1.55l.06.02c.1.07.21.1.34.11.15 0 .43-.25.84-.75.4-.5.67-.75.8-.75Zm-3.15 8.22h.03c1.35 0 2.64-.29 3.81-.8l-.06.02c2.35-1 4.2-2.83 5.16-5.12l.03-.07a9.55 9.55 0 0 0-.02-7.61l.02.06a9.65 9.65 0 0 0-5.13-5.16l-.06-.02a9.55 9.55 0 0 0-7.61.02l.06-.02a9.65 9.65 0 0 0-5.16 5.12l-.03.06a9.6 9.6 0 0 0 1.1 9.5l-.01-.02-1.23 3.62 3.75-1.2a9.45 9.45 0 0 0 5.3 1.62h.06Zm0-21.43h.04c1.63 0 3.17.34 4.57.96l-.07-.03c2.82 1.2 5.03 3.4 6.2 6.15l.02.08a11.48 11.48 0 0 1-.03 9.14l.03-.07a11.62 11.62 0 0 1-6.14 6.2l-.08.02c-1.33.59-2.88.93-4.5.93h-.09c-2.06 0-4-.54-5.66-1.49l.05.03L0 24l2.1-6.28a11.59 11.59 0 0 1-.72-10.64l-.02.08c1.2-2.83 3.4-5.03 6.15-6.2L7.6.93C8.92.34 10.46 0 12.09 0h.04Z" fill="#F07F83"/></g><defs><clipPath id="a"><path fill="#fff" d="M0 0h24v24H0z"/></clipPath></defs></svg>